<mxfile host="app.diagrams.net" agent="Mozilla/5.0 (Windows NT 10.0; Win64; x64) AppleWebKit/537.36 (KHTML, like Gecko) Chrome/127.0.0.0 Safari/537.36 Edg/127.0.0.0" version="24.7.6">
  <diagram name="第 1 页" id="A_QIarBcYK2Ss2AhLEnn">
    <mxGraphModel dx="951" dy="499" grid="1" gridSize="10" guides="1" tooltips="1" connect="1" arrows="1" fold="1" page="1" pageScale="1" pageWidth="827" pageHeight="1169" math="0" shadow="0">
      <root>
        <mxCell id="0" />
        <mxCell id="1" parent="0" />
        <mxCell id="zw5MO9swSgtGFWgh9qfE-1" value="Actor" style="shape=umlActor;verticalLabelPosition=bottom;verticalAlign=top;html=1;outlineConnect=0;rounded=0;sketch=1;curveFitting=1;jiggle=2;fillColor=#d5e8d4;strokeColor=#82b366;" vertex="1" parent="1">
          <mxGeometry x="230" y="370" width="30" height="60" as="geometry" />
        </mxCell>
        <UserObject label="数据库" tooltip="数据库" id="zw5MO9swSgtGFWgh9qfE-2">
          <mxCell style="shape=cylinder3;whiteSpace=wrap;html=1;boundedLbl=1;backgroundOutline=1;size=15;noLabel=0;rounded=0;sketch=1;curveFitting=1;jiggle=2;fillColor=#d5e8d4;strokeColor=#82b366;" vertex="1" parent="1">
            <mxGeometry x="400" y="360" width="60" height="80" as="geometry" />
          </mxCell>
        </UserObject>
        <mxCell id="zw5MO9swSgtGFWgh9qfE-3" value="" style="shape=cylinder3;whiteSpace=wrap;html=1;boundedLbl=1;backgroundOutline=1;size=15;rounded=0;fillColor=#d5e8d4;sketch=1;curveFitting=1;jiggle=2;strokeColor=#82b366;" vertex="1" parent="1">
          <mxGeometry x="280" y="585" width="60" height="80" as="geometry" />
        </mxCell>
        <mxCell id="zw5MO9swSgtGFWgh9qfE-5" value="" style="shape=cylinder3;whiteSpace=wrap;html=1;boundedLbl=1;backgroundOutline=1;size=15;sketch=1;curveFitting=1;jiggle=2;fillColor=#d5e8d4;strokeColor=#82b366;" vertex="1" parent="1">
          <mxGeometry x="390" y="585" width="60" height="80" as="geometry" />
        </mxCell>
        <mxCell id="zw5MO9swSgtGFWgh9qfE-10" value="" style="endArrow=classic;html=1;rounded=0;" edge="1" parent="1">
          <mxGeometry relative="1" as="geometry">
            <mxPoint x="280" y="399.67" as="sourcePoint" />
            <mxPoint x="380" y="399.67" as="targetPoint" />
            <Array as="points">
              <mxPoint x="330" y="399.67" />
            </Array>
          </mxGeometry>
        </mxCell>
        <mxCell id="zw5MO9swSgtGFWgh9qfE-11" value="请求" style="edgeLabel;resizable=0;html=1;;align=center;verticalAlign=middle;" connectable="0" vertex="1" parent="zw5MO9swSgtGFWgh9qfE-10">
          <mxGeometry relative="1" as="geometry" />
        </mxCell>
      </root>
    </mxGraphModel>
  </diagram>
</mxfile>
